<?xml version="1.0" encoding="iso-8859-1"?>
<!-- Generator: Adobe Illustrator 19.0.0, SVG Export Plug-In . SVG Version: 6.00 Build 0)  -->
<svg version="1.1" id="Layer_1" xmlns="http://www.w3.org/2000/svg" xmlns:xlink="http://www.w3.org/1999/xlink" x="0px" y="0px"
	 viewBox="0 0 512 512" style="enable-background:new 0 0 512 512;" xml:space="preserve">
<g>
	<g>
		<g>
			<path d="M319.634,64c0-17.443-14.19-31.634-31.634-31.634S256.366,46.557,256.366,64c0,17.443,14.191,31.635,31.635,31.635
				S319.634,81.444,319.634,64z M288,80.366c-9.024,0-16.366-7.342-16.366-16.366S278.976,47.635,288,47.635
				S304.366,54.976,304.366,64C304.366,73.025,297.024,80.366,288,80.366z"/>
			<path d="M199.634,256c0-13.032-10.602-23.635-23.635-23.635c-13.031,0-23.634,10.603-23.634,23.635
				c0,13.032,10.603,23.635,23.634,23.635C189.032,279.635,199.634,269.033,199.634,256z M167.634,256
				c0-4.613,3.752-8.365,8.365-8.365c4.613,0,8.365,3.753,8.365,8.365c0,4.612-3.753,8.365-8.365,8.365
				C171.388,264.366,167.634,260.612,167.634,256z"/>
			<path d="M200,408.365c-17.443,0-31.635,14.191-31.635,31.635s14.191,31.635,31.635,31.635s31.634-14.191,31.634-31.635
				S217.443,408.365,200,408.365z M200,456.366c-9.024,0-16.366-7.341-16.366-16.366s7.342-16.366,16.366-16.366
				s16.365,7.341,16.365,16.366S209.023,456.366,200,456.366z"/>
			<path d="M368.001,328.365c-26.266,0-47.635,21.369-47.635,47.634s21.369,47.635,47.635,47.635
				c26.265,0,47.634-21.369,47.634-47.635S394.266,328.365,368.001,328.365z M368.001,408.365
				c-17.847,0-32.367-14.519-32.367-32.366c0-17.846,14.521-32.365,32.367-32.365s32.365,14.519,32.365,32.365
				C400.365,393.847,385.847,408.365,368.001,408.365z"/>
			<path d="M312.365,176c0,13.033,10.603,23.635,23.635,23.635c13.032,0,23.634-10.603,23.634-23.635
				c0-13.031-10.602-23.634-23.634-23.634C322.968,152.366,312.365,162.968,312.365,176z M336,167.634
				c4.613,0,8.365,3.752,8.365,8.365c0,4.613-3.753,8.365-8.365,8.365s-8.366-3.753-8.366-8.365
				C327.634,171.388,331.387,167.634,336,167.634z"/>
			<path d="M437.019,74.981C388.667,26.629,324.38,0,255.999,0C187.619,0,123.332,26.629,74.98,74.981
				C26.629,123.334,0,187.62,0,256S26.629,388.668,74.98,437.02C123.332,485.371,187.619,512,255.999,512
				c44.898,0,89.071-11.792,127.743-34.101c37.51-21.64,69.172-52.678,91.562-89.761C499.31,348.379,512,302.687,512,256.001
				C512,187.62,485.37,123.333,437.019,74.981z M464.365,152c0,17.847-14.519,32.366-32.366,32.366S399.633,169.847,399.633,152
				c0-17.846,14.519-32.365,32.366-32.365S464.365,134.154,464.365,152z M80,135.635c26.669,0,48.366,21.697,48.366,48.366
				c0,26.668-21.697,48.365-48.366,48.365c-26.668,0-48.365-21.697-48.365-48.365C31.635,157.331,53.331,135.635,80,135.635z
				 M55.634,376c0-4.613,3.752-8.365,8.365-8.365c4.613,0,8.365,3.752,8.365,8.365c0,4.613-3.753,8.365-8.365,8.365
				C59.388,384.365,55.634,380.613,55.634,376z M461.608,379.867c-20.996,34.775-50.687,63.881-85.86,84.172
				C339.504,484.948,298.096,496,255.999,496c-64.106,0-124.375-24.965-169.706-70.294c-8.222-8.221-15.764-16.941-22.618-26.08
				c0.108,0.001,0.216,0.008,0.324,0.008c13.032,0,23.635-10.602,23.635-23.635c0-13.031-10.603-23.634-23.635-23.634
				c-9.465,0-17.643,5.595-21.413,13.648C25.216,332.409,16,294.916,16,255.999c0-16.482,1.663-32.708,4.885-48.493
				c9.372,23.483,32.329,40.128,59.115,40.128c35.088,0,63.635-28.546,63.635-63.634S115.088,120.365,80,120.365
				c-9.139,0-17.827,1.952-25.69,5.436c9.142-14.099,19.822-27.346,31.985-39.508c45.33-45.33,105.599-70.294,169.706-70.294
				s124.375,24.965,169.705,70.294c6.192,6.193,11.99,12.673,17.411,19.395c-3.569-0.857-7.288-1.323-11.116-1.323
				c-26.266,0-47.635,21.369-47.635,47.634c0,26.265,21.369,47.635,47.635,47.635c21.967,0,40.499-14.951,45.979-35.209
				C489.8,193.084,496,224.065,496,256C496,299.771,484.106,342.605,461.608,379.867z"/>
			<rect x="31.999" y="264.37" width="16" height="15.269"/>
			<rect x="192.002" y="143.996" width="16" height="15.999"/>
			<rect x="359.996" y="80.36" width="15.999" height="15.269"/>
			<rect x="256.003" y="216" width="15.999" height="15.999"/>
			<rect x="359.996" y="256.367" width="15.999" height="15.269"/>
			<rect x="448.005" y="224.367" width="16" height="15.269"/>
			<rect x="448.005" y="320.368" width="16" height="15.269"/>
			<rect x="263.995" y="295.995" width="15.999" height="15.999"/>
			<rect x="168.004" y="327.995" width="16" height="15.999"/>
			<rect x="248" y="399.999" width="16" height="15.999"/>
			<rect x="303.998" y="448.369" width="15.999" height="15.269"/>
			<rect x="104.004" y="376.001" width="16" height="15.999"/>
			<rect x="128.001" y="87.998" width="16" height="15.999"/>
			<rect x="207.997" y="40.003" width="15.999" height="15.999"/>
		</g>
	</g>
</g>
<g>
</g>
<g>
</g>
<g>
</g>
<g>
</g>
<g>
</g>
<g>
</g>
<g>
</g>
<g>
</g>
<g>
</g>
<g>
</g>
<g>
</g>
<g>
</g>
<g>
</g>
<g>
</g>
<g>
</g>
</svg>
